<?xml version="1.0" standalone="no"?>
<!DOCTYPE svg PUBLIC "-//W3C//DTD SVG 20010904//EN"
 "http://www.w3.org/TR/2001/REC-SVG-20010904/DTD/svg10.dtd">
<svg version="1.0" xmlns="http://www.w3.org/2000/svg"
 width="152.000000pt" height="152.000000pt" viewBox="0 0 152.000000 152.000000"
 preserveAspectRatio="xMidYMid meet">
<metadata>
Created by potrace 1.11, written by Peter Selinger 2001-2013
</metadata>
<g transform="translate(0.000000,152.000000) scale(0.100000,-0.100000)"
fill="#000000" stroke="none">
<path d="M0 760 l0 -760 760 0 760 0 0 760 0 760 -760 0 -760 0 0 -760z m931
566 c151 -47 291 -165 354 -298 41 -85 65 -187 65 -274 0 -48 4 -65 20 -79 23
-21 25 -43 8 -80 -10 -23 -24 -29 -53 -26 -5 0 -26 -30 -44 -67 -22 -42 -61
-94 -107 -140 -180 -182 -448 -222 -682 -103 l-42 21 0 -40 c0 -45 -18 -54
-41 -19 -8 11 -39 30 -69 42 l-54 22 -47 -22 c-26 -13 -63 -42 -82 -64 -20
-25 -39 -39 -46 -35 -19 12 -12 88 13 142 21 44 96 124 118 124 16 0 7 61 -23
150 -72 217 -23 436 134 594 124 124 266 180 437 172 52 -3 116 -12 141 -20z"/>
<path d="M500 1141 l-25 -7 22 -12 c13 -7 30 -26 38 -42 19 -37 10 -63 -48
-128 -121 -136 -217 -345 -217 -475 -1 -51 -2 -53 -45 -79 -62 -37 -97 -95
-103 -166 l-4 -57 21 30 c11 17 51 47 87 68 58 33 69 36 83 24 9 -8 33 -20 54
-27 21 -6 43 -20 50 -31 13 -22 27 -25 27 -6 0 42 -27 96 -71 142 l-49 52 40
61 c59 87 148 152 230 168 l35 7 -24 -26 -24 -26 39 5 c64 9 175 67 235 122
31 29 66 52 77 52 30 0 189 -58 247 -89 28 -15 77 -44 109 -64 33 -21 63 -37
68 -37 4 0 11 11 14 26 5 18 1 31 -15 48 -12 13 -31 54 -43 92 -18 61 -29 77
-92 140 -110 110 -260 174 -407 174 -54 0 -77 6 -125 30 -61 32 -140 45 -184
31z m720 -351 c8 -15 8 -20 -2 -20 -7 0 -19 9 -26 20 -10 17 -10 20 3 20 8 0
19 -9 25 -20z m-510 -4 c-19 -7 -40 -23 -47 -36 -8 -17 -27 -28 -64 -37 -123
-32 -208 -94 -260 -193 -22 -40 -28 -47 -24 -25 10 47 72 140 123 186 75 66
192 118 267 118 l40 -1 -35 -12z"/>
<path d="M1256 935 c-5 -13 18 -65 29 -65 4 0 -15 73 -20 78 -1 2 -5 -4 -9
-13z"/>
<path d="M861 716 c-27 -29 -26 -36 4 -36 14 0 25 -4 25 -9 0 -15 -43 -63 -74
-82 l-31 -19 52 0 c67 0 127 24 157 63 l25 31 78 -18 c43 -10 113 -29 156 -43
43 -13 84 -22 90 -20 7 3 4 8 -8 12 -11 4 -63 24 -115 45 -121 48 -146 56
-252 79 l-87 19 -20 -22z"/>
<path d="M240 711 c0 -6 5 -34 11 -62 l11 -52 14 39 c18 51 18 49 -11 68 -14
9 -25 12 -25 7z"/>
<path d="M776 627 c-50 -27 -73 -33 -143 -36 -71 -3 -83 -1 -83 13 0 45 -173
-97 -187 -154 -5 -20 2 -32 46 -71 95 -85 234 -139 356 -139 68 0 191 30 174
42 -10 7 -8 7 8 3 36 -10 135 49 201 119 58 63 119 162 107 174 -4 4 -55 19
-113 34 l-107 26 -30 -28 c-43 -42 -99 -61 -173 -62 -71 0 -93 14 -64 43 9 9
20 15 24 12 4 -2 22 10 40 26 43 39 20 38 -56 -2z m-276 -92 c13 -14 21 -25
18 -25 -2 0 -15 11 -28 25 -13 14 -21 25 -18 25 2 0 15 -11 28 -25z m414 -10
c11 -8 15 -15 10 -15 -6 0 -19 7 -30 15 -10 8 -14 14 -9 14 6 0 19 -6 29 -14z
m76 -35 c19 -11 31 -19 25 -19 -5 0 -26 8 -45 19 -19 11 -30 19 -25 19 6 0 26
-8 45 -19z m-409 -27 c13 -16 12 -17 -3 -4 -17 13 -22 21 -14 21 2 0 10 -8 17
-17z m586 -29 c-3 -3 -12 -4 -19 -1 -8 3 -5 6 6 6 11 1 17 -2 13 -5z m-367
-100 c0 -2 -7 -4 -15 -4 -8 0 -15 4 -15 10 0 5 7 7 15 4 8 -4 15 -8 15 -10z"/>
</g>
</svg>
